<mxfile host="65bd71144e">
    <diagram id="yT2SiiInNTRVCTrv4k3O" name="Page-1">
        <mxGraphModel dx="1348" dy="789" grid="1" gridSize="10" guides="1" tooltips="1" connect="1" arrows="1" fold="1" page="1" pageScale="1" pageWidth="827" pageHeight="1169" math="0" shadow="0">
            <root>
                <mxCell id="0"/>
                <mxCell id="1" parent="0"/>
                <mxCell id="2" value="VPC" style="sketch=0;outlineConnect=0;gradientColor=none;html=1;whiteSpace=wrap;fontSize=12;fontStyle=0;shape=mxgraph.aws4.group;grIcon=mxgraph.aws4.group_vpc;strokeColor=#B6BABF;fillColor=none;verticalAlign=top;align=left;spacingLeft=30;fontColor=#FFFFFF;dashed=0;" parent="1" vertex="1">
                    <mxGeometry x="50" y="100" width="550" height="430" as="geometry"/>
                </mxCell>
                <mxCell id="3" value="Subnet" style="sketch=0;outlineConnect=0;gradientColor=none;html=1;whiteSpace=wrap;fontSize=12;fontStyle=0;shape=mxgraph.aws4.group;grIcon=mxgraph.aws4.group_subnet;strokeColor=#E8E8E8;fillColor=none;verticalAlign=top;align=left;spacingLeft=30;fontColor=#FFFFFF;dashed=0;" parent="1" vertex="1">
                    <mxGeometry x="100" y="160" width="270" height="280" as="geometry"/>
                </mxCell>
                <mxCell id="4" value="" style="outlineConnect=0;dashed=0;verticalLabelPosition=bottom;verticalAlign=top;align=center;html=1;shape=mxgraph.aws3.ec2;fillColor=#F58534;gradientColor=none;fontColor=#FFFFFF;" parent="1" vertex="1">
                    <mxGeometry x="130" y="268.5" width="76.5" height="93" as="geometry"/>
                </mxCell>
                <mxCell id="5" value="10.0.0.0/24" style="text;html=1;strokeColor=none;fillColor=none;align=center;verticalAlign=middle;whiteSpace=wrap;rounded=0;fontStyle=0;fontColor=#FFFFFF;" parent="1" vertex="1">
                    <mxGeometry x="120" y="180" width="60" height="30" as="geometry"/>
                </mxCell>
                <mxCell id="6" value="" style="outlineConnect=0;dashed=0;verticalLabelPosition=bottom;verticalAlign=top;align=center;html=1;shape=mxgraph.aws3.vpc_nat_gateway;fillColor=#F58534;gradientColor=none;fontColor=#FFFFFF;" parent="1" vertex="1">
                    <mxGeometry x="340" y="268.5" width="69" height="72" as="geometry"/>
                </mxCell>
                <mxCell id="7" value="サブネット既存ルーター&lt;br&gt;ルートテーブル" style="text;html=1;strokeColor=none;fillColor=none;align=center;verticalAlign=middle;whiteSpace=wrap;rounded=0;fontStyle=0;fontColor=#FFFFFF;" parent="1" vertex="1">
                    <mxGeometry x="287.25" y="350" width="180.5" height="30" as="geometry"/>
                </mxCell>
                <mxCell id="8" value="" style="endArrow=classic;startArrow=classic;html=1;fontColor=#FFFFFF;" parent="1" target="6" edge="1">
                    <mxGeometry width="50" height="50" relative="1" as="geometry">
                        <mxPoint x="206.5" y="318.5" as="sourcePoint"/>
                        <mxPoint x="256.5" y="268.5" as="targetPoint"/>
                    </mxGeometry>
                </mxCell>
                <mxCell id="9" value="" style="endArrow=classic;startArrow=classic;html=1;fontColor=#FFFFFF;" parent="1" target="10" edge="1">
                    <mxGeometry width="50" height="50" relative="1" as="geometry">
                        <mxPoint x="409" y="305.56" as="sourcePoint"/>
                        <mxPoint x="542.5" y="294.435" as="targetPoint"/>
                    </mxGeometry>
                </mxCell>
                <mxCell id="10" value="" style="outlineConnect=0;dashed=0;verticalLabelPosition=bottom;verticalAlign=top;align=center;html=1;shape=mxgraph.aws3.vpc_nat_gateway;fillColor=#F58534;gradientColor=none;fontColor=#FFFFFF;" parent="1" vertex="1">
                    <mxGeometry x="570" y="268.5" width="69" height="72" as="geometry"/>
                </mxCell>
                <mxCell id="11" value="インターネットゲートウェイ&lt;br&gt;ルートテーブル" style="text;html=1;strokeColor=none;fillColor=none;align=center;verticalAlign=middle;whiteSpace=wrap;rounded=0;fontStyle=0;fontColor=#FFFFFF;" parent="1" vertex="1">
                    <mxGeometry x="510" y="230" width="180.5" height="30" as="geometry"/>
                </mxCell>
                <mxCell id="12" value="" style="outlineConnect=0;dashed=0;verticalLabelPosition=bottom;verticalAlign=top;align=center;html=1;shape=mxgraph.aws3.internet_gateway;fillColor=#F58534;gradientColor=none;" parent="1" vertex="1">
                    <mxGeometry x="700" y="268.5" width="69" height="72" as="geometry"/>
                </mxCell>
                <mxCell id="13" value="" style="endArrow=classic;startArrow=classic;html=1;entryX=0;entryY=0.5;entryDx=0;entryDy=0;entryPerimeter=0;fontColor=#FFFFFF;" parent="1" target="12" edge="1">
                    <mxGeometry width="50" height="50" relative="1" as="geometry">
                        <mxPoint x="639" y="304.91999999999996" as="sourcePoint"/>
                        <mxPoint x="790" y="310" as="targetPoint"/>
                    </mxGeometry>
                </mxCell>
                <mxCell id="14" value="ルーティングシンプルな構成&lt;br&gt;パブリックサブネットからインターネットに接続するにはインターネットゲートウェイが必要" style="text;html=1;strokeColor=none;fillColor=none;align=center;verticalAlign=middle;whiteSpace=wrap;rounded=0;fontStyle=0;fontColor=#FFFFFF;" parent="1" vertex="1">
                    <mxGeometry x="48.25" y="20" width="240" height="80" as="geometry"/>
                </mxCell>
            </root>
        </mxGraphModel>
    </diagram>
</mxfile>